<?xml version="1.0" standalone="no"?>
<!DOCTYPE svg PUBLIC "-//W3C//DTD SVG 20010904//EN"
 "http://www.w3.org/TR/2001/REC-SVG-20010904/DTD/svg10.dtd">
<svg version="1.0" xmlns="http://www.w3.org/2000/svg"
 width="1674.000000pt" height="1516.000000pt" viewBox="0 0 1674.000000 1516.000000"
 preserveAspectRatio="xMidYMid meet">

<g transform="translate(0.000000,1516.000000) scale(0.100000,-0.100000)"
fill="#000000" stroke="none">
<path d="M10 7585 l0 -7575 8365 0 8365 0 -2 7573 -3 7572 -8362 3 -8363 2 0
-7575z m16430 -5 l0 -7280 -8070 0 -8070 0 0 7280 0 7280 8070 0 8070 0 0
-7280z"/>
<path d="M560 7580 l0 -6990 7810 0 7810 0 0 6990 0 6990 -7810 0 -7810 0 0
-6990z m10991 3764 c70 -21 188 -82 283 -148 l77 -52 85 29 c124 41 169 44
254 17 211 -68 550 -332 550 -429 0 -34 -15 -48 -109 -96 -197 -103 -478 -359
-877 -800 -699 -772 -1421 -1765 -3027 -4160 -873 -1301 -950 -1405 -1101
-1480 -41 -21 -65 -25 -132 -25 -112 0 -227 34 -395 118 l-136 68 -44 -20
c-33 -15 -64 -20 -124 -19 -102 1 -249 48 -414 134 -167 86 -288 176 -432 319
-192 191 -299 368 -330 545 -38 221 50 725 391 2240 268 1189 372 1749 434
2325 4 30 11 125 16 210 11 180 22 222 70 270 63 63 181 78 320 40 70 -20 276
-114 345 -157 30 -20 30 -20 84 5 129 59 355 -3 632 -174 271 -168 511 -396
600 -571 l34 -67 3 -200 c2 -111 -1 -281 -8 -379 -6 -99 -10 -180 -8 -182 2
-2 44 47 93 108 570 707 958 1156 1310 1516 516 526 945 858 1265 978 146 55
204 63 291 37z"/>
</g>
</svg>
