<?xml version="1.0" standalone="no"?>
<!DOCTYPE svg PUBLIC "-//W3C//DTD SVG 20010904//EN"
 "http://www.w3.org/TR/2001/REC-SVG-20010904/DTD/svg10.dtd">
<svg version="1.0" xmlns="http://www.w3.org/2000/svg"
 width="174.000000pt" height="158.000000pt" viewBox="0 0 174.000000 158.000000"
 preserveAspectRatio="xMidYMid meet">

<g transform="translate(0.000000,158.000000) scale(0.100000,-0.100000)"
fill="#000000" stroke="none">
<path d="M0 790 l0 -790 870 0 870 0 0 790 0 790 -870 0 -870 0 0 -790z m1710
0 l0 -760 -840 0 -840 0 0 760 0 760 840 0 840 0 0 -760z"/>
<path d="M60 790 l0 -730 810 0 810 0 0 730 0 730 -810 0 -810 0 0 -730z
m1165 380 c3 -6 17 -7 29 -4 29 7 92 -43 66 -53 -48 -18 -189 -195 -388 -490
-87 -128 -129 -183 -142 -183 -98 0 -200 66 -200 129 0 18 14 96 31 174 18 78
39 187 48 242 19 110 13 104 96 90 49 -9 112 -50 121 -79 4 -11 6 -37 6 -56
l-1 -35 37 45 c62 76 155 171 196 201 39 29 89 38 101 19z"/>
</g>
</svg>
